ISO-10303-21;
HEADER;
/* Generated by software containing ST-Developer
 * from STEP Tools, Inc. (www.steptools.com) 
 */
/* OPTION: using custom renumber hook */

FILE_DESCRIPTION(
/* description */ ('STEP AP242 Edition 2',
'CAx-IF Rec.Pracs.---Representation and Presentation of Product Manufa
cturing Information (PMI)---4.0---2014-10-13',
'CAx-IF Rec.Pracs.---3D Tessellated Geometry---0.4---2014-09-14','2;1',
'CAx-IF Rec.Pracs.---User Defined Attributes---1.5---2016-08-15'),
/* implementation_level */ '2;1');

FILE_NAME(
/* name */ 'soup body - soup_body_bottom',
/* time_stamp */ '2026-06-22T23:42:44Z',
/* author */ (''),
/* organization */ (''),
/* preprocessor_version */ 'ST-DEVELOPER v20',
/* originating_system */ 'ONSHAPE BY PTC INC, 1.216',
/* authorisation */ '  ');

FILE_SCHEMA (('AP242_MANAGED_MODEL_BASED_3D_ENGINEERING_MIM_LF { 1 0 10303 442 3 1 4 }'));
ENDSEC;

DATA;
#10=SHAPE_REPRESENTATION_RELATIONSHIP('','',#135,#11);
#11=ADVANCED_BREP_SHAPE_REPRESENTATION('',(#133),#262);
#12=DEGENERATE_TOROIDAL_SURFACE('',#148,0.0144991666665266,0.062497697318808,
 .T.);
#13=PLANE('',#139);
#14=PLANE('',#142);
#15=PLANE('',#146);
#16=PLANE('',#150);
#17=PLANE('',#151);
#18=PLANE('',#154);
#19=CIRCLE('',#138,0.006109999972);
#20=CIRCLE('',#141,0.006109999972);
#21=CIRCLE('',#144,0.063259999972);
#22=CIRCLE('',#145,0.063259999972);
#23=CIRCLE('',#147,0.076199999999977);
#24=CIRCLE('',#149,0.06604);
#25=CIRCLE('',#153,0.006109999972);
#26=ORIENTED_EDGE('',*,*,#46,.F.);
#27=ORIENTED_EDGE('',*,*,#47,.F.);
#28=ORIENTED_EDGE('',*,*,#47,.T.);
#29=ORIENTED_EDGE('',*,*,#48,.F.);
#30=ORIENTED_EDGE('',*,*,#49,.F.);
#31=ORIENTED_EDGE('',*,*,#49,.T.);
#32=ORIENTED_EDGE('',*,*,#46,.T.);
#33=ORIENTED_EDGE('',*,*,#48,.T.);
#34=ORIENTED_EDGE('',*,*,#50,.F.);
#35=ORIENTED_EDGE('',*,*,#51,.T.);
#36=ORIENTED_EDGE('',*,*,#52,.T.);
#37=ORIENTED_EDGE('',*,*,#50,.T.);
#38=ORIENTED_EDGE('',*,*,#53,.T.);
#39=ORIENTED_EDGE('',*,*,#54,.T.);
#40=ORIENTED_EDGE('',*,*,#53,.F.);
#41=ORIENTED_EDGE('',*,*,#54,.F.);
#42=ORIENTED_EDGE('',*,*,#51,.F.);
#43=ORIENTED_EDGE('',*,*,#52,.F.);
#44=ORIENTED_EDGE('',*,*,#55,.F.);
#45=ORIENTED_EDGE('',*,*,#55,.T.);
#46=EDGE_CURVE('',#56,#56,#66,.T.);
#47=EDGE_CURVE('',#57,#57,#19,.T.);
#48=EDGE_CURVE('',#58,#58,#67,.T.);
#49=EDGE_CURVE('',#59,#59,#20,.T.);
#50=EDGE_CURVE('',#60,#60,#21,.T.);
#51=EDGE_CURVE('',#61,#61,#22,.T.);
#52=EDGE_CURVE('',#62,#62,#68,.T.);
#53=EDGE_CURVE('',#63,#63,#23,.T.);
#54=EDGE_CURVE('',#64,#64,#24,.T.);
#55=EDGE_CURVE('',#65,#65,#25,.T.);
#56=VERTEX_POINT('',#208);
#57=VERTEX_POINT('',#210);
#58=VERTEX_POINT('',#226);
#59=VERTEX_POINT('',#228);
#60=VERTEX_POINT('',#232);
#61=VERTEX_POINT('',#234);
#62=VERTEX_POINT('',#248);
#63=VERTEX_POINT('',#251);
#64=VERTEX_POINT('',#254);
#65=VERTEX_POINT('',#259);
#66=B_SPLINE_CURVE_WITH_KNOTS('',3,(#195,#196,#197,#198,#199,#200,#201,
#202,#203,#204,#205,#206,#207),.UNSPECIFIED.,.T.,.F.,(1,1,1,1,1,1,1,1,1,
1,1,1,1,1,1,1,1),(-0.0071668289396617,-0.00477788595977446,-0.00238894297988723,
0.,0.00477788595977447,0.00955577191954893,0.0143336578793234,0.0191115438390979,
0.0238894297988723,0.0286673157586468,0.031056258738534,0.0334452017184213,
0.0358341446983085,0.0382230876781957,0.0430009736379702,0.0477788595977447,
0.0525567455575191),.UNSPECIFIED.);
#67=B_SPLINE_CURVE_WITH_KNOTS('',3,(#213,#214,#215,#216,#217,#218,#219,
#220,#221,#222,#223,#224,#225),.UNSPECIFIED.,.T.,.F.,(1,1,1,1,1,1,1,1,1,
1,1,1,1,1,1,1,1),(-0.0071668289396617,-0.00477788595977447,-0.00238894297988723,
0.,0.00477788595977447,0.00955577191954894,0.0143336578793234,0.0191115438390979,
0.0238894297988723,0.0286673157586468,0.031056258738534,0.0334452017184213,
0.0358341446983085,0.0382230876781958,0.0430009736379702,0.0477788595977447,
0.0525567455575192),.UNSPECIFIED.);
#68=B_SPLINE_CURVE_WITH_KNOTS('',3,(#235,#236,#237,#238,#239,#240,#241,
#242,#243,#244,#245,#246,#247),.UNSPECIFIED.,.T.,.F.,(1,1,1,1,1,1,1,1,1,
1,1,1,1,1,1,1,1),(-0.0071668289396617,-0.00477788595977447,-0.00238894297988724,
2.28233081563421E-20,0.00477788595977447,0.00955577191954894,0.0143336578793234,
0.0191115438390979,0.0238894297988723,0.0286673157586468,0.031056258738534,
0.0334452017184213,0.0358341446983085,0.0382230876781957,0.0430009736379702,
0.0477788595977447,0.0525567455575192),.UNSPECIFIED.);
#69=EDGE_LOOP('',(#26));
#70=EDGE_LOOP('',(#27));
#71=EDGE_LOOP('',(#28));
#72=EDGE_LOOP('',(#29));
#73=EDGE_LOOP('',(#30));
#74=EDGE_LOOP('',(#31));
#75=EDGE_LOOP('',(#32));
#76=EDGE_LOOP('',(#33));
#77=EDGE_LOOP('',(#34));
#78=EDGE_LOOP('',(#35));
#79=EDGE_LOOP('',(#36));
#80=EDGE_LOOP('',(#37));
#81=EDGE_LOOP('',(#38));
#82=EDGE_LOOP('',(#39));
#83=EDGE_LOOP('',(#40));
#84=EDGE_LOOP('',(#41));
#85=EDGE_LOOP('',(#42));
#86=EDGE_LOOP('',(#43));
#87=EDGE_LOOP('',(#44));
#88=EDGE_LOOP('',(#45));
#89=FACE_BOUND('',#69,.T.);
#90=FACE_BOUND('',#70,.T.);
#91=FACE_BOUND('',#71,.T.);
#92=FACE_BOUND('',#72,.T.);
#93=FACE_BOUND('',#73,.T.);
#94=FACE_BOUND('',#74,.T.);
#95=FACE_BOUND('',#75,.T.);
#96=FACE_BOUND('',#76,.T.);
#97=FACE_BOUND('',#77,.T.);
#98=FACE_BOUND('',#78,.T.);
#99=FACE_BOUND('',#79,.T.);
#100=FACE_BOUND('',#80,.T.);
#101=FACE_BOUND('',#81,.T.);
#102=FACE_BOUND('',#82,.T.);
#103=FACE_BOUND('',#83,.T.);
#104=FACE_BOUND('',#84,.T.);
#105=FACE_BOUND('',#85,.T.);
#106=FACE_BOUND('',#86,.T.);
#107=FACE_BOUND('',#87,.T.);
#108=FACE_BOUND('',#88,.T.);
#109=CYLINDRICAL_SURFACE('',#137,0.006109999972);
#110=CYLINDRICAL_SURFACE('',#140,0.006109999972);
#111=CYLINDRICAL_SURFACE('',#143,0.063259999972);
#112=CYLINDRICAL_SURFACE('',#152,0.006109999972);
#113=ADVANCED_FACE('',(#89,#90),#109,.T.);
#114=ADVANCED_FACE('',(#91),#13,.T.);
#115=ADVANCED_FACE('',(#92,#93),#110,.T.);
#116=ADVANCED_FACE('',(#94),#14,.T.);
#117=ADVANCED_FACE('',(#95,#96,#97,#98,#99),#111,.T.);
#118=ADVANCED_FACE('',(#100,#101),#15,.F.);
#119=ADVANCED_FACE('',(#102,#103),#12,.T.);
#120=ADVANCED_FACE('',(#104),#16,.F.);
#121=ADVANCED_FACE('',(#105),#17,.F.);
#122=ADVANCED_FACE('',(#106,#107),#112,.T.);
#123=ADVANCED_FACE('',(#108),#18,.T.);
#124=CLOSED_SHELL('',(#113,#114,#115,#116,#117,#118,#119,#120,#121,#122,
#123));
#125=STYLED_ITEM('',(#126),#133);
#126=PRESENTATION_STYLE_ASSIGNMENT((#127));
#127=SURFACE_STYLE_USAGE(.BOTH.,#128);
#128=SURFACE_SIDE_STYLE('',(#129));
#129=SURFACE_STYLE_FILL_AREA(#130);
#130=FILL_AREA_STYLE('',(#131));
#131=FILL_AREA_STYLE_COLOUR('',#132);
#132=COLOUR_RGB('',0.623529411764706,0.666666666666667,0.701960784313725);
#133=MANIFOLD_SOLID_BREP('soup_body_bottom',#124);
#134=SHAPE_DEFINITION_REPRESENTATION(#267,#135);
#135=SHAPE_REPRESENTATION('soup_body_bottom',(#136),#262);
#136=AXIS2_PLACEMENT_3D('',#193,#155,#156);
#137=AXIS2_PLACEMENT_3D('',#194,#157,#158);
#138=AXIS2_PLACEMENT_3D('',#209,#159,#160);
#139=AXIS2_PLACEMENT_3D('',#211,#161,#162);
#140=AXIS2_PLACEMENT_3D('',#212,#163,#164);
#141=AXIS2_PLACEMENT_3D('',#227,#165,#166);
#142=AXIS2_PLACEMENT_3D('',#229,#167,#168);
#143=AXIS2_PLACEMENT_3D('',#230,#169,#170);
#144=AXIS2_PLACEMENT_3D('',#231,#171,#172);
#145=AXIS2_PLACEMENT_3D('',#233,#173,#174);
#146=AXIS2_PLACEMENT_3D('',#249,#175,#176);
#147=AXIS2_PLACEMENT_3D('',#250,#177,#178);
#148=AXIS2_PLACEMENT_3D('',#252,#179,#180);
#149=AXIS2_PLACEMENT_3D('',#253,#181,#182);
#150=AXIS2_PLACEMENT_3D('',#255,#183,#184);
#151=AXIS2_PLACEMENT_3D('',#256,#185,#186);
#152=AXIS2_PLACEMENT_3D('',#257,#187,#188);
#153=AXIS2_PLACEMENT_3D('',#258,#189,#190);
#154=AXIS2_PLACEMENT_3D('',#260,#191,#192);
#155=DIRECTION('',(0.,0.,1.));
#156=DIRECTION('',(1.,0.,0.));
#157=DIRECTION('',(-0.866025403784438,-0.5,0.));
#158=DIRECTION('',(0.,0.,1.));
#159=DIRECTION('',(0.866025403784438,0.5,0.));
#160=DIRECTION('',(0.,0.,-1.));
#161=DIRECTION('',(0.866025403784438,0.5,0.));
#162=DIRECTION('',(-0.5,0.866025403784438,0.));
#163=DIRECTION('',(0.866025403784439,-0.5,0.));
#164=DIRECTION('',(0.,0.,1.));
#165=DIRECTION('',(-0.866025403784439,0.5,0.));
#166=DIRECTION('',(0.,0.,-1.));
#167=DIRECTION('',(-0.866025403784439,0.5,0.));
#168=DIRECTION('',(-0.5,-0.866025403784439,0.));
#169=DIRECTION('',(0.,0.,-1.));
#170=DIRECTION('',(-1.,0.,0.));
#171=DIRECTION('',(0.,0.,-1.));
#172=DIRECTION('',(-1.,0.,0.));
#173=DIRECTION('',(0.,0.,-1.));
#174=DIRECTION('',(-1.,0.,0.));
#175=DIRECTION('',(0.,0.,-1.));
#176=DIRECTION('',(-1.,0.,0.));
#177=DIRECTION('',(0.,0.,1.));
#178=DIRECTION('',(1.,0.,0.));
#179=DIRECTION('',(0.,0.,1.));
#180=DIRECTION('',(1.,0.,0.));
#181=DIRECTION('',(0.,0.,1.));
#182=DIRECTION('',(1.,0.,0.));
#183=DIRECTION('',(0.,0.,1.));
#184=DIRECTION('',(1.,0.,0.));
#185=DIRECTION('',(0.,0.,-1.));
#186=DIRECTION('',(1.,0.,0.));
#187=DIRECTION('',(0.,1.,0.));
#188=DIRECTION('',(0.,0.,1.));
#189=DIRECTION('',(0.,-1.,0.));
#190=DIRECTION('',(0.,0.,-1.));
#191=DIRECTION('',(0.,-1.,0.));
#192=DIRECTION('',(1.,0.,0.));
#193=CARTESIAN_POINT('',(0.,0.,0.));
#194=CARTESIAN_POINT('',(0.060491874454343,0.034925,0.0381));
#195=CARTESIAN_POINT('',(0.0559613180538795,0.0295268053155466,0.0438871177392878));
#196=CARTESIAN_POINT('',(0.0544111259051294,0.032346087804747,0.0445363523732738));
#197=CARTESIAN_POINT('',(0.052264781871761,0.0357011829695452,0.0428872395240971));
#198=CARTESIAN_POINT('',(0.0510788326935673,0.0373088426285044,0.0381047677859776));
#199=CARTESIAN_POINT('',(0.0522616779378812,0.0357046526892447,0.0333136913973929));
#200=CARTESIAN_POINT('',(0.0548479145770839,0.0316684709947406,0.0313293240897523));
#201=CARTESIAN_POINT('',(0.0570485468391433,0.0274131004726483,0.0333090148743688));
#202=CARTESIAN_POINT('',(0.0577158127662107,0.0258929246477315,0.0372908033349498));
#203=CARTESIAN_POINT('',(0.0574527177765914,0.0264822373743436,0.0404972106580497));
#204=CARTESIAN_POINT('',(0.0568743336623491,0.027714965198568,0.0425294371772472));
#205=CARTESIAN_POINT('',(0.0559613180538795,0.0295268053155466,0.0438871177392878));
#206=CARTESIAN_POINT('',(0.0544111259051294,0.032346087804747,0.0445363523732738));
#207=CARTESIAN_POINT('',(0.052264781871761,0.0357011829695452,0.0428872395240971));
#208=CARTESIAN_POINT('',(0.0547847670191549,0.031629999986,0.044209999972));
#209=CARTESIAN_POINT('',(0.060491874454343,0.034925,0.0381));
#210=CARTESIAN_POINT('',(0.060491874454343,0.034925,0.031990000028));
#211=CARTESIAN_POINT('',(0.0622431966685518,0.0318916209445664,0.0762));
#212=CARTESIAN_POINT('',(-0.060491874454343,0.034925,0.0381));
#213=CARTESIAN_POINT('',(-0.0535516225228004,0.0337005204061471,0.0438871177392878));
#214=CARTESIAN_POINT('',(-0.0552180967045176,0.0309483733799821,0.0445363523732738));
#215=CARTESIAN_POINT('',(-0.057050522332663,0.0274120373394249,0.0428872395240971));
#216=CARTESIAN_POINT('',(-0.0578498218488642,0.0255811453940322,0.0381047677859776));
#217=CARTESIAN_POINT('',(-0.0570519752311269,0.0274076143939836,0.0333136913973929));
#218=CARTESIAN_POINT('',(-0.0548496576689979,0.0316654518709832,0.0313293240897523));
#219=CARTESIAN_POINT('',(-0.0522647148253803,0.0356989405753604,0.0333090148743688));
#220=CARTESIAN_POINT('',(-0.051281836906317,0.0370368977317389,0.0372908033349498));
#221=CARTESIAN_POINT('',(-0.051660649203527,0.0365143944238141,0.0404972106580497));
#222=CARTESIAN_POINT('',(-0.052439030758136,0.0353971351756228,0.0425294371772472));
#223=CARTESIAN_POINT('',(-0.0535516225228004,0.0337005204061471,0.0438871177392878));
#224=CARTESIAN_POINT('',(-0.0552180967045176,0.0309483733799821,0.0445363523732738));
#225=CARTESIAN_POINT('',(-0.057050522332663,0.0274120373394249,0.0428872395240971));
#226=CARTESIAN_POINT('',(-0.0547847670191549,0.031629999986,0.044209999972));
#227=CARTESIAN_POINT('',(-0.060491874454343,0.034925,0.0381));
#228=CARTESIAN_POINT('',(-0.060491874454343,0.034925,0.031990000028));
#229=CARTESIAN_POINT('',(-0.0587405522401342,0.0379583790554337,0.0762));
#230=CARTESIAN_POINT('',(0.,-3.87355782398857E-18,0.04572));
#231=CARTESIAN_POINT('',(0.,-3.87355782398857E-18,0.0254));
#232=CARTESIAN_POINT('',(-0.063259999972,-3.87355782398857E-18,0.0254));
#233=CARTESIAN_POINT('',(0.,-3.87355782398857E-18,0.04572));
#234=CARTESIAN_POINT('',(-0.063259999972,-3.87355782398857E-18,0.04572));
#235=CARTESIAN_POINT('',(-0.00240969553107905,-0.0632273257216937,0.0438871177392878));
#236=CARTESIAN_POINT('',(0.000806970799388141,-0.0632944611847291,0.0445363523732738));
#237=CARTESIAN_POINT('',(0.00478574046090197,-0.0631132203089701,0.0428872395240971));
#238=CARTESIAN_POINT('',(0.00677098915529693,-0.0628899880225366,0.0381047677859776));
#239=CARTESIAN_POINT('',(0.00479029729324566,-0.0631122670832282,0.0333136913973929));
#240=CARTESIAN_POINT('',(1.74309191411058E-6,-0.0633339228657238,0.0313293240897523));
#241=CARTESIAN_POINT('',(-0.00478383201376302,-0.0631120410480087,0.0333090148743688));
#242=CARTESIAN_POINT('',(-0.00643397585989364,-0.0629298223794704,0.0372908033349498));
#243=CARTESIAN_POINT('',(-0.00579206857306441,-0.0629966317981578,0.0404972106580497));
#244=CARTESIAN_POINT('',(-0.0044353029042131,-0.0631121003741907,0.0425294371772471));
#245=CARTESIAN_POINT('',(-0.00240969553107905,-0.0632273257216937,0.0438871177392878));
#246=CARTESIAN_POINT('',(0.000806970799388141,-0.0632944611847291,0.0445363523732738));
#247=CARTESIAN_POINT('',(0.00478574046090197,-0.0631132203089701,0.0428872395240971));
#248=CARTESIAN_POINT('',(8.01453911824824E-20,-0.063259999972,0.044209999972));
#249=CARTESIAN_POINT('',(-0.0380999999999885,0.,0.0254));
#250=CARTESIAN_POINT('',(0.,0.,0.0254));
#251=CARTESIAN_POINT('',(0.076199999999977,0.,0.0254));
#252=CARTESIAN_POINT('',(0.,0.,0.0353483333333334));
#253=CARTESIAN_POINT('',(0.,0.,-1.38777878078145E-17));
#254=CARTESIAN_POINT('',(0.06604,0.,-1.38777878078145E-17));
#255=CARTESIAN_POINT('',(-0.03302,0.,-3.46944695195361E-18));
#256=CARTESIAN_POINT('',(0.,0.,0.04572));
#257=CARTESIAN_POINT('',(5.66580200823043E-20,-0.06985,0.0381));
#258=CARTESIAN_POINT('',(5.66580200823043E-20,-0.06985,0.0381));
#259=CARTESIAN_POINT('',(5.66580200823043E-20,-0.06985,0.031990000028));
#260=CARTESIAN_POINT('',(-0.0035026444284176,-0.06985,0.0762));
#261=MECHANICAL_DESIGN_GEOMETRIC_PRESENTATION_REPRESENTATION('',(#125),
#262);
#262=(
GEOMETRIC_REPRESENTATION_CONTEXT(3)
GLOBAL_UNCERTAINTY_ASSIGNED_CONTEXT((#263))
GLOBAL_UNIT_ASSIGNED_CONTEXT((#266,#265,#264))
REPRESENTATION_CONTEXT('soup_body_bottom','TOP_LEVEL_ASSEMBLY_PART')
);
#263=UNCERTAINTY_MEASURE_WITH_UNIT(LENGTH_MEASURE(2.E-5),#266,
'DISTANCE_ACCURACY_VALUE','Maximum Tolerance applied to model');
#264=(
NAMED_UNIT(*)
SI_UNIT($,.STERADIAN.)
SOLID_ANGLE_UNIT()
);
#265=(
NAMED_UNIT(*)
PLANE_ANGLE_UNIT()
SI_UNIT($,.RADIAN.)
);
#266=(
LENGTH_UNIT()
NAMED_UNIT(*)
SI_UNIT($,.METRE.)
);
#267=PRODUCT_DEFINITION_SHAPE('','',#268);
#268=PRODUCT_DEFINITION('','',#270,#269);
#269=PRODUCT_DEFINITION_CONTEXT('',#276,'design');
#270=PRODUCT_DEFINITION_FORMATION_WITH_SPECIFIED_SOURCE('','',#272,
 .NOT_KNOWN.);
#271=PRODUCT_RELATED_PRODUCT_CATEGORY('','',(#272));
#272=PRODUCT('soup_body_bottom','soup_body_bottom','soup_body_bottom',(#274));
#273=PRODUCT_CATEGORY('','');
#274=PRODUCT_CONTEXT('',#276,'mechanical');
#275=APPLICATION_PROTOCOL_DEFINITION('international standard',
'ap242_managed_model_based_3d_engineering',2020,#276);
#276=APPLICATION_CONTEXT('managed model based 3d engineering');
ENDSEC;
END-ISO-10303-21;
